<?xml version="1.0" encoding="UTF-8" standalone="no"?>
<!DOCTYPE svg PUBLIC "-//W3C//DTD SVG 20010904//EN"
              "http://www.w3.org/TR/2001/REC-SVG-20010904/DTD/svg10.dtd">

<svg xmlns="http://www.w3.org/2000/svg"
     width="17.2222in" height="24.3611in"
     viewBox="0 0 1240 1754">
  <path id="選択範囲 #1"
        fill="none" stroke="black" stroke-width="1"
        d="M 843.98,47.00
           C 843.76,53.36 840.57,57.23 838.67,63.00
             838.67,63.00 836.09,72.00 836.09,72.00
             835.09,75.24 835.08,79.09 832.97,81.75
             830.80,84.48 827.33,85.17 824.02,84.80
             814.68,83.75 815.91,72.86 816.00,66.00
             816.14,55.60 821.18,41.02 830.00,35.02
             840.00,31.68 844.32,37.50 843.98,47.00 Z
           M 502.28,40.11
           C 504.17,43.31 506.59,59.27 507.68,64.00
             507.68,64.00 517.30,100.00 517.30,100.00
             518.21,105.85 515.60,110.86 510.00,113.15
             504.21,115.50 498.05,113.72 495.36,107.96
             491.69,100.09 488.69,84.74 486.88,76.00
             486.88,76.00 482.30,54.00 482.30,54.00
             481.12,45.75 481.90,40.44 490.00,36.70
             494.85,35.61 499.42,35.26 502.28,40.11 Z
           M 653.83,48.11
           C 655.43,50.97 654.96,56.65 655.00,60.00
             655.06,64.96 657.17,77.28 658.68,82.00
             659.99,86.07 663.59,93.73 663.89,97.00
             665.05,109.77 650.68,110.54 645.95,106.03
             643.02,103.23 641.50,97.78 640.26,94.00
             637.28,84.89 635.99,73.60 636.00,64.00
             636.01,56.10 635.81,48.19 644.00,44.65
             648.03,43.92 651.56,44.08 653.83,48.11 Z
           M 342.61,48.72
           C 345.40,51.25 348.63,58.42 350.42,62.00
             350.42,62.00 361.63,82.00 361.63,82.00
             363.57,85.43 369.12,92.48 369.36,96.00
             369.65,100.32 365.37,103.92 361.96,105.80
             358.41,107.76 353.84,108.92 350.00,106.98
             346.54,105.22 344.10,101.24 342.16,98.00
             338.09,91.23 334.04,82.36 331.10,75.00
             329.25,70.37 328.88,70.09 327.80,65.00
             326.23,57.57 324.26,52.42 331.10,47.02
             335.31,45.56 339.10,45.54 342.61,48.72 Z
           M 740.00,76.00
           C 739.99,78.77 740.29,82.44 738.40,84.69
             736.05,87.48 731.33,87.06 728.00,87.00
             725.76,86.96 723.32,87.04 721.56,85.40
             718.80,82.84 718.05,75.62 718.00,72.00
             717.90,63.50 717.16,56.81 726.00,52.70
             742.26,49.08 740.02,65.49 740.00,76.00 Z
           M 923.20,77.00
           C 920.72,82.85 906.19,98.30 901.15,104.00
             897.84,107.75 894.76,111.86 890.00,113.91
             880.86,117.86 871.03,109.99 875.57,100.00
             878.25,94.09 888.22,83.30 892.84,78.00
             898.16,71.91 901.72,66.04 909.00,61.93
             920.70,58.42 928.20,65.20 923.20,77.00 Z
           M 432.66,79.00
           C 434.35,81.95 442.22,99.40 442.43,102.00
             442.83,107.08 437.86,113.23 433.00,114.39
             426.33,115.99 422.59,109.92 419.92,104.91
             414.68,95.07 407.95,76.42 422.00,70.84
             427.58,70.85 430.06,74.45 432.66,79.00 Z
           M 572.57,82.72
           C 574.47,84.57 577.04,92.11 578.27,95.00
             582.19,104.18 595.51,124.54 579.00,129.49
             571.29,131.80 566.46,127.90 562.16,122.00
             554.91,112.05 554.98,105.59 555.00,94.00
             555.01,91.46 554.81,88.33 556.02,86.04
             557.62,83.03 560.05,81.89 563.00,80.65
             566.76,79.92 569.58,79.81 572.57,82.72 Z
           M 996.47,117.54
           C 993.76,120.45 982.93,127.28 979.00,129.86
             979.00,129.86 948.00,150.07 948.00,150.07
             939.61,155.65 935.79,160.37 925.00,159.98
             914.33,159.60 910.68,149.81 918.26,142.75
             918.26,142.75 960.72,112.60 960.72,112.60
             968.21,107.43 978.22,99.33 987.00,97.44
             1003.19,95.48 1003.39,110.09 996.47,117.54 Z
           M 304.78,121.01
           C 308.59,127.80 305.74,134.57 298.00,136.05
             286.46,138.27 271.30,123.73 284.04,114.56
             285.86,113.25 286.95,113.08 289.00,112.50
             295.83,111.80 301.38,114.99 304.78,121.01 Z
           M 581.60,214.00
           C 591.76,197.04 602.09,184.91 616.00,171.00
             641.95,145.06 675.04,124.77 711.00,116.53
             725.84,113.12 740.83,112.83 756.00,113.00
             766.42,113.13 777.10,115.45 787.00,118.38
             802.85,123.09 815.61,128.14 828.96,138.37
             840.15,146.95 848.48,156.46 856.42,168.00
             864.30,179.45 871.90,195.53 875.33,209.00
             875.33,209.00 880.68,231.00 880.68,231.00
             880.68,231.00 881.29,243.00 881.29,243.00
             882.09,249.56 883.15,251.80 882.99,259.00
             882.99,259.00 880.99,273.00 880.99,273.00
             880.99,273.00 880.99,284.00 880.99,284.00
             880.99,284.00 878.81,293.00 878.81,293.00
             878.81,293.00 877.32,302.00 877.32,302.00
             874.93,312.42 869.37,328.19 865.01,338.00
             865.01,338.00 839.43,387.00 839.43,387.00
             839.43,387.00 799.72,461.00 799.72,461.00
             777.92,497.76 752.54,532.01 725.46,565.00
             725.46,565.00 694.00,601.00 694.00,601.00
             691.38,603.67 680.63,614.27 679.58,617.09
             678.91,618.90 678.97,622.03 679.01,624.00
             679.10,627.85 681.73,641.97 684.43,644.26
             686.85,646.31 691.00,646.00 694.00,646.00
             694.00,646.00 730.00,646.00 730.00,646.00
             732.56,645.98 735.44,646.19 737.51,644.40
             739.78,642.43 741.44,636.86 742.58,634.00
             742.58,634.00 752.00,614.00 752.00,614.00
             752.00,614.00 731.00,607.89 731.00,607.89
             726.96,606.88 722.35,606.60 719.14,603.70
             714.09,599.14 714.28,587.78 721.10,584.89
             726.17,582.74 731.21,585.06 736.00,586.65
             736.00,586.65 756.00,593.14 756.00,593.14
             758.35,593.97 764.90,596.48 767.00,596.37
             769.73,596.23 778.32,590.22 782.00,588.46
             791.65,583.86 802.27,581.13 813.00,581.00
             828.91,580.82 845.25,580.47 859.00,589.99
             864.65,593.90 868.15,598.66 872.27,603.99
             873.95,606.17 875.79,609.16 879.01,608.37
             881.36,607.80 891.38,598.38 894.00,596.13
             894.00,596.13 919.00,574.27 919.00,574.27
             919.00,574.27 933.51,560.96 933.51,560.96
             937.00,555.75 930.85,552.38 927.28,549.42
             927.28,549.42 898.00,525.46 898.00,525.46
             898.00,525.46 859.72,495.27 859.72,495.27
             856.39,492.49 847.82,486.72 846.64,482.99
             845.62,479.75 847.66,476.68 849.19,474.00
             852.53,468.16 855.90,462.34 860.01,457.00
             872.02,441.38 883.89,428.00 901.00,417.80
             907.62,413.86 918.15,409.59 926.00,410.18
             934.12,410.80 943.29,414.39 947.15,422.00
             948.32,424.31 948.64,426.55 949.28,429.00
             949.91,431.38 950.75,433.51 950.86,436.00
             950.86,436.00 948.18,452.00 948.18,452.00
             948.18,452.00 943.28,468.00 943.28,468.00
             943.42,470.00 944.60,471.28 946.07,472.51
             946.07,472.51 963.00,482.00 963.00,482.00
             963.00,482.00 1008.00,509.07 1008.00,509.07
             1014.68,513.47 1027.35,519.41 1027.95,528.00
             1028.41,534.72 1025.02,542.06 1022.08,548.00
             1022.08,548.00 1009.18,573.00 1009.18,573.00
             1009.18,573.00 971.12,644.00 971.12,644.00
             971.12,644.00 953.00,671.96 953.00,671.96
             950.92,675.24 946.03,681.61 945.17,685.00
             944.07,689.38 949.51,699.46 951.22,704.00
             956.32,717.58 960.19,731.83 963.18,746.00
             963.18,746.00 964.44,755.00 964.44,755.00
             966.41,767.25 966.93,761.53 967.00,776.00
             967.00,776.00 968.96,800.00 968.96,800.00
             968.96,800.00 967.00,816.00 967.00,816.00
             967.00,816.00 967.00,827.00 967.00,827.00
             967.00,827.00 960.25,861.00 960.25,861.00
             949.01,903.41 928.34,941.33 899.00,973.96
             888.96,985.13 877.72,995.30 866.09,1004.76
             859.78,1009.89 851.24,1014.26 848.07,1022.00
             844.76,1030.10 849.44,1041.30 852.35,1049.00
             852.35,1049.00 874.10,1107.00 874.10,1107.00
             875.83,1111.39 882.72,1128.50 882.77,1132.00
             882.80,1134.57 881.81,1136.84 880.44,1138.96
             876.68,1144.76 861.44,1153.74 855.00,1157.60
             831.02,1171.96 797.28,1186.67 769.00,1187.00
             761.83,1187.08 748.36,1187.43 742.00,1184.64
             733.25,1180.79 735.97,1174.31 729.96,1174.37
             727.85,1174.39 719.60,1178.10 717.00,1179.09
             717.00,1179.09 703.00,1184.16 703.00,1184.16
             703.00,1184.16 691.00,1188.53 691.00,1188.53
             682.26,1190.62 672.39,1188.79 666.30,1181.96
             663.96,1179.33 662.79,1177.43 662.05,1174.00
             661.46,1171.25 660.58,1166.71 660.84,1164.00
             662.38,1147.54 675.78,1136.78 689.00,1128.61
             693.13,1126.06 707.34,1118.88 707.40,1113.96
             707.44,1111.44 699.56,1098.10 697.80,1095.00
             697.80,1095.00 673.61,1052.00 673.61,1052.00
             668.53,1043.22 661.94,1033.35 666.65,1023.00
             666.65,1023.00 687.97,988.00 687.97,988.00
             687.97,988.00 731.00,912.00 731.00,912.00
             731.00,912.00 748.72,885.00 748.72,885.00
             751.07,881.71 756.13,877.16 755.78,873.00
             755.62,871.03 753.06,866.02 752.13,864.00
             752.13,864.00 742.69,844.00 742.69,844.00
             742.69,844.00 730.15,817.00 730.15,817.00
             730.15,817.00 708.85,768.00 708.85,768.00
             708.85,768.00 699.45,744.00 699.45,744.00
             698.29,740.62 696.73,735.05 693.73,732.93
             689.58,730.00 680.89,730.52 676.00,729.48
             676.00,729.48 669.00,727.52 669.00,727.52
             669.00,727.52 647.00,723.39 647.00,723.39
             647.00,723.39 627.00,718.36 627.00,718.36
             622.14,717.32 606.32,714.20 603.58,710.77
             601.31,707.93 601.05,702.53 601.00,699.00
             601.00,699.00 601.00,682.00 601.00,682.00
             601.00,682.00 601.96,670.00 601.96,670.00
             601.96,670.00 601.04,659.00 601.04,659.00
             601.04,659.00 601.04,643.00 601.04,643.00
             600.99,640.16 601.56,633.48 596.98,634.04
             593.94,634.41 583.78,644.17 581.09,646.54
             569.97,656.34 547.19,675.91 539.37,687.00
             529.25,701.36 526.04,719.35 521.45,736.00
             521.45,736.00 511.33,774.00 511.33,774.00
             511.33,774.00 509.56,784.00 509.56,784.00
             509.56,784.00 507.63,791.00 507.63,791.00
             507.63,791.00 503.63,814.00 503.63,814.00
             503.63,814.00 501.68,821.00 501.68,821.00
             501.68,821.00 497.41,839.00 497.41,839.00
             497.41,839.00 486.08,877.00 486.08,877.00
             484.85,881.61 481.84,886.17 483.93,891.00
             486.48,896.87 492.48,898.68 498.00,900.58
             512.69,905.62 517.89,905.83 533.00,906.00
             538.17,906.06 547.93,907.69 551.74,911.30
             555.15,914.54 555.92,918.53 556.00,923.00
             556.00,923.00 556.00,950.00 556.00,950.00
             555.96,958.80 554.91,957.00 554.18,963.00
             554.18,963.00 553.00,981.00 553.00,981.00
             553.00,981.00 550.00,1013.00 550.00,1013.00
             549.82,1028.59 548.38,1026.37 547.00,1039.00
             547.00,1039.00 547.00,1047.00 547.00,1047.00
             546.67,1050.51 545.00,1055.76 547.00,1058.85
             548.80,1061.92 551.87,1061.82 555.00,1062.28
             555.00,1062.28 569.00,1065.64 569.00,1065.64
             588.04,1070.86 615.88,1082.43 614.96,1106.00
             614.37,1121.12 602.73,1130.97 588.00,1131.00
             588.00,1131.00 485.00,1131.00 485.00,1131.00
             485.00,1131.00 465.00,1131.00 465.00,1131.00
             461.31,1130.95 457.78,1130.79 455.43,1127.47
             453.72,1125.05 454.01,1121.82 454.00,1119.00
             454.00,1119.00 454.00,1112.00 454.00,1112.00
             454.00,1112.00 459.54,1082.00 459.54,1082.00
             459.54,1082.00 460.21,1074.00 460.21,1074.00
             460.21,1074.00 462.67,1065.00 462.67,1065.00
             462.67,1065.00 463.44,1057.00 463.44,1057.00
             463.44,1057.00 465.71,1045.00 465.71,1045.00
             465.71,1045.00 466.46,1037.00 466.46,1037.00
             466.46,1037.00 468.68,1028.00 468.68,1028.00
             468.68,1028.00 472.00,997.00 472.00,997.00
             472.14,984.72 473.23,981.17 464.00,981.00
             464.00,981.00 426.00,983.83 426.00,983.83
             416.36,984.75 415.51,983.24 404.00,986.14
             404.00,986.14 395.00,987.37 395.00,987.37
             395.00,987.37 387.00,989.58 387.00,989.58
             384.81,990.12 381.16,990.73 380.32,993.23
             379.40,995.98 388.03,1006.22 390.07,1008.96
             390.07,1008.96 401.13,1023.00 401.13,1023.00
             401.13,1023.00 411.85,1037.91 411.85,1037.91
             414.59,1041.47 420.81,1048.95 421.70,1053.00
             423.50,1061.20 415.76,1066.62 410.83,1072.01
             410.83,1072.01 385.00,1099.00 385.00,1099.00
             383.02,1101.02 373.09,1111.12 372.33,1113.09
             371.03,1116.44 373.62,1118.33 376.01,1120.13
             376.01,1120.13 390.91,1131.13 390.91,1131.13
             397.65,1136.55 409.38,1147.38 411.49,1156.00
             412.22,1159.00 411.38,1161.19 410.50,1164.00
             407.60,1173.31 402.14,1180.21 394.00,1185.64
             388.41,1189.36 381.74,1191.91 375.00,1192.00
             375.00,1192.00 368.00,1192.00 368.00,1192.00
             358.15,1191.98 348.36,1189.31 339.00,1186.51
             321.36,1181.23 304.40,1174.33 288.00,1165.90
             280.96,1162.28 264.15,1154.52 261.70,1147.00
             259.41,1139.94 269.93,1128.23 274.28,1123.00
             274.28,1123.00 307.87,1080.00 307.87,1080.00
             307.87,1080.00 317.83,1067.00 317.83,1067.00
             318.80,1065.63 320.66,1063.16 320.60,1061.42
             320.51,1058.62 313.14,1052.14 311.00,1050.00
             302.04,1041.04 293.03,1031.92 285.12,1022.00
             263.15,994.46 249.17,964.02 240.48,930.00
             231.92,896.51 232.95,877.56 233.00,844.00
             233.02,828.74 239.03,801.00 243.30,786.00
             243.30,786.00 261.50,735.00 261.50,735.00
             263.04,731.12 269.77,715.96 269.73,713.04
             269.67,709.07 258.62,695.08 255.81,691.00
             255.81,691.00 225.12,647.00 225.12,647.00
             222.32,642.92 213.24,630.05 212.45,626.00
             211.30,620.03 218.18,610.87 221.40,606.00
             221.40,606.00 246.37,565.00 246.37,565.00
             250.01,558.15 245.99,557.09 242.44,550.00
             240.18,545.47 239.44,541.03 240.21,536.00
             240.98,530.96 245.23,524.67 248.53,520.83
             257.34,510.59 273.33,502.16 287.00,502.00
             287.00,502.00 302.00,502.00 302.00,502.00
             309.72,502.09 317.42,503.97 325.00,505.21
             327.98,505.69 329.27,506.52 332.00,507.41
             338.25,509.46 348.33,511.89 350.49,519.01
             352.55,525.84 346.37,533.77 342.76,539.17
             342.76,539.17 315.09,582.00 315.09,582.00
             315.09,582.00 303.89,598.00 303.89,598.00
             301.70,601.09 299.80,603.25 302.33,606.83
             302.33,606.83 328.00,628.44 328.00,628.44
             330.22,630.30 333.93,634.39 336.96,634.10
             338.93,633.92 341.57,631.38 343.17,630.17
             347.51,626.89 350.99,624.35 356.00,622.13
             365.99,617.71 375.02,615.06 386.00,614.76
             386.00,614.76 397.00,614.76 397.00,614.76
             402.08,614.84 409.35,614.72 414.00,615.92
             426.50,619.14 434.79,623.84 444.11,632.87
             446.90,635.57 453.34,644.40 457.01,643.83
             459.54,643.44 466.26,637.50 468.80,635.60
             468.80,635.60 489.00,620.63 489.00,620.63
             493.37,617.38 497.71,613.51 503.00,612.00
             502.39,604.50 496.05,600.79 491.11,595.54
             491.11,595.54 461.27,562.00 461.27,562.00
             458.14,558.34 449.54,549.62 449.44,545.00
             449.32,539.88 454.51,537.95 452.26,534.09
             450.98,531.89 446.27,529.36 444.00,528.00
             444.00,528.00 425.00,516.26 425.00,516.26
             403.12,501.56 381.30,486.80 361.00,469.92
             334.39,447.79 297.22,410.41 280.48,380.00
             272.25,365.05 267.19,350.53 263.49,334.00
             263.49,334.00 261.32,326.00 261.32,326.00
             261.32,326.00 260.82,317.00 260.82,317.00
             259.82,308.63 259.13,312.49 259.00,301.00
             259.00,301.00 258.00,288.00 258.00,288.00
             258.00,288.00 259.05,275.00 259.05,275.00
             259.05,275.00 259.05,266.00 259.05,266.00
             259.05,266.00 260.68,259.00 260.68,259.00
             260.68,259.00 261.38,251.00 261.38,251.00
             261.38,251.00 263.49,244.00 263.49,244.00
             267.64,227.35 271.49,216.88 280.40,202.00
             296.53,175.07 322.57,150.30 354.00,143.34
             360.07,142.00 361.44,141.08 368.00,141.00
             368.00,141.00 382.00,141.00 382.00,141.00
             388.87,141.01 393.33,141.94 400.00,142.87
             400.00,142.87 412.00,144.37 412.00,144.37
             412.00,144.37 419.00,146.32 419.00,146.32
             452.97,154.36 484.93,169.49 513.00,190.38
             527.50,201.17 539.27,212.25 552.00,225.00
             557.06,230.07 563.20,239.30 570.00,241.00
             571.40,232.42 577.13,221.47 581.60,214.00 Z
           M 247.99,169.09
           C 250.92,171.23 257.33,174.95 258.74,178.05
             262.35,185.99 249.81,193.57 243.00,192.58
             239.48,192.07 234.91,189.57 232.00,187.56
             222.20,180.80 199.83,166.33 216.05,154.02
             227.63,150.06 239.29,162.75 247.99,169.09 Z
           M 972.89,206.02
           C 977.73,208.74 978.53,218.77 974.57,222.44
             971.85,224.97 967.41,224.67 964.00,225.45
             964.00,225.45 950.00,228.60 950.00,228.60
             950.00,228.60 943.00,230.67 943.00,230.67
             928.15,233.23 928.60,218.89 932.51,214.14
             935.66,210.32 949.83,206.68 955.00,205.47
             958.66,204.96 969.89,204.33 972.89,206.02 Z
           M 230.40,236.65
           C 233.00,239.52 233.43,253.36 226.90,256.81
             223.61,258.55 219.38,256.94 216.00,256.13
             212.41,255.28 206.92,255.10 204.31,252.57
             199.70,248.09 202.88,236.64 207.19,233.02
             211.98,231.31 226.83,232.69 230.40,236.65 Z
           M 966.00,283.21
           C 971.79,283.00 980.51,282.61 985.83,284.84
             991.40,287.16 993.80,295.81 989.44,300.43
             986.73,303.30 982.61,302.99 979.00,303.00
             979.00,303.00 934.00,303.00 934.00,303.00
             931.17,302.99 927.71,303.22 925.22,301.69
             920.75,298.93 918.11,290.17 922.92,285.57
             924.98,283.60 930.95,283.86 934.00,283.21
             934.00,283.21 966.00,283.21 966.00,283.21 Z
           M 231.85,294.51
           C 235.76,297.74 236.60,308.84 232.57,312.26
             229.97,314.47 224.31,314.03 221.00,314.00
             216.69,313.95 209.49,313.44 206.14,310.57
             202.69,307.61 200.28,298.50 203.85,294.85
             205.34,293.33 208.01,292.92 210.00,292.46
             215.39,291.72 227.59,290.98 231.85,294.51 Z
           M 936.00,347.40
           C 939.12,348.85 943.19,350.46 945.26,353.30
             948.71,358.03 946.35,368.89 934.00,367.89
             927.48,367.37 914.10,360.62 909.11,356.32
             903.18,351.09 902.34,346.01 909.11,341.02
             917.92,337.99 927.92,343.63 936.00,347.40 Z
           M 255.71,376.67
           C 252.95,381.50 243.35,384.66 238.00,384.90
             229.92,385.25 219.38,377.95 225.60,369.17
             229.75,363.31 237.33,361.28 244.00,360.52
             253.48,360.65 259.17,370.62 255.71,376.67 Z
           M 888.11,393.30
           C 892.21,398.90 888.33,406.85 882.00,408.57
             869.41,411.99 853.69,391.97 869.04,385.58
             875.08,384.73 884.44,388.29 888.11,393.30 Z
           M 268.82,413.77
           C 274.92,416.40 274.74,424.12 271.08,428.67
             268.64,431.71 263.47,434.11 260.00,436.05
             260.00,436.05 238.00,447.75 238.00,447.75
             235.80,448.10 232.33,448.04 230.00,447.75
             219.49,447.81 215.26,439.76 220.31,434.53
             222.00,432.79 228.57,429.06 231.00,427.60
             231.00,427.60 257.00,413.77 257.00,413.77
             260.27,412.97 265.63,412.35 268.82,413.77 Z
           M 762.30,646.00
           C 759.70,664.02 772.67,678.94 786.17,689.00
             791.55,693.01 797.18,696.58 803.00,699.92
             806.37,701.86 811.04,704.43 812.81,708.04
             817.03,716.62 803.29,721.22 797.00,720.67
             789.65,720.03 782.72,715.82 776.72,711.80
             766.54,704.97 758.77,699.08 751.39,689.00
             747.90,684.23 746.30,681.51 744.22,676.00
             743.30,673.56 741.82,668.41 739.69,667.02
             737.80,665.79 734.22,666.00 732.00,666.00
             732.00,666.00 674.00,666.00 674.00,666.00
             670.94,666.00 666.81,666.29 664.31,664.26
             662.23,662.57 661.64,659.48 661.00,657.00
             659.03,649.29 659.64,642.49 658.71,635.00
             656.69,618.58 656.03,627.16 656.00,607.00
             656.00,607.00 654.17,587.00 654.17,587.00
             654.17,587.00 653.00,563.00 653.00,563.00
             652.99,557.06 651.74,543.64 647.69,539.26
             644.38,535.68 639.61,534.42 635.00,533.73
             627.15,532.56 612.43,531.95 605.00,534.55
             598.52,536.81 593.21,544.02 594.92,551.00
             596.98,559.44 603.73,563.39 611.00,566.90
             618.60,570.57 623.81,569.89 624.00,580.00
             624.00,580.00 624.00,619.00 624.00,619.00
             624.00,619.00 624.96,631.00 624.96,631.00
             624.96,631.00 624.96,643.00 624.96,643.00
             624.96,643.00 625.98,658.00 625.98,658.00
             625.98,658.00 625.98,685.00 625.98,685.00
             626.17,698.76 632.48,698.85 644.00,702.01
             653.46,704.60 651.47,703.23 658.00,704.47
             658.00,704.47 666.00,706.63 666.00,706.63
             666.00,706.63 674.00,707.29 674.00,707.29
             674.00,707.29 691.00,709.58 691.00,709.58
             699.57,710.71 702.71,708.45 707.96,713.15
             713.66,718.25 716.35,726.13 719.27,733.00
             719.27,733.00 730.88,759.00 730.88,759.00
             730.88,759.00 762.08,825.00 762.08,825.00
             762.08,825.00 773.84,847.00 773.84,847.00
             777.14,853.49 781.51,863.61 780.66,871.00
             779.98,876.84 774.81,882.36 771.38,887.00
             771.38,887.00 751.91,914.00 751.91,914.00
             740.72,929.62 737.79,941.86 729.56,958.00
             729.56,958.00 708.60,992.00 708.60,992.00
             708.60,992.00 696.48,1011.00 696.48,1011.00
             693.47,1015.47 689.93,1019.41 689.21,1025.00
             688.22,1032.68 695.37,1041.45 698.88,1048.00
             698.88,1048.00 723.65,1095.00 723.65,1095.00
             726.03,1099.20 733.47,1112.53 733.18,1116.96
             732.86,1121.94 723.85,1126.33 720.00,1128.65
             709.66,1134.85 694.13,1144.75 686.13,1153.46
             682.36,1157.57 676.60,1164.50 681.31,1169.85
             682.90,1171.66 684.65,1172.52 687.00,1172.85
             691.18,1173.45 695.12,1171.98 699.00,1170.68
             708.40,1167.54 717.15,1162.85 726.00,1158.41
             729.09,1156.86 736.32,1153.67 738.52,1151.59
             742.43,1147.89 744.18,1141.89 757.00,1130.87
             757.00,1130.87 773.81,1118.33 773.81,1118.33
             776.00,1116.34 777.85,1114.15 777.02,1111.00
             776.28,1108.18 769.97,1100.70 767.88,1098.00
             767.88,1098.00 750.63,1076.83 750.63,1076.83
             750.63,1076.83 743.91,1068.04 743.91,1068.04
             740.18,1063.58 732.60,1056.32 733.73,1050.00
             734.38,1046.39 740.01,1036.71 742.00,1033.00
             742.00,1033.00 759.61,1001.00 759.61,1001.00
             759.61,1001.00 788.99,950.00 788.99,950.00
             788.99,950.00 801.42,929.00 801.42,929.00
             805.24,923.11 814.13,908.12 823.00,911.58
             827.77,913.44 829.82,918.24 828.30,923.00
             828.30,923.00 814.14,946.96 814.14,946.96
             814.14,946.96 770.80,1020.00 770.80,1020.00
             767.03,1026.31 755.27,1043.25 756.43,1050.00
             757.23,1054.65 764.42,1062.88 767.58,1066.72
             767.58,1066.72 794.00,1098.42 794.00,1098.42
             797.10,1102.00 804.33,1108.75 805.29,1113.00
             806.78,1119.54 797.54,1123.16 793.00,1125.67
             782.50,1131.50 765.24,1141.74 757.04,1150.04
             753.58,1153.54 748.22,1160.27 750.83,1165.53
             754.65,1173.28 771.05,1170.37 778.00,1170.03
             798.26,1169.06 828.10,1155.80 845.00,1144.73
             849.05,1142.07 861.30,1135.18 862.60,1130.99
             863.55,1127.92 856.73,1113.09 855.28,1109.00
             855.28,1109.00 843.54,1078.00 843.54,1078.00
             843.54,1078.00 832.84,1048.00 832.84,1048.00
             830.77,1042.45 824.17,1029.34 826.18,1024.01
             827.79,1019.77 839.99,1009.34 844.04,1005.70
             844.04,1005.70 875.70,974.09 875.70,974.09
             901.56,945.98 916.57,919.70 931.72,885.00
             936.38,874.34 940.50,864.30 943.39,853.00
             943.39,853.00 944.51,846.00 944.51,846.00
             946.04,838.59 946.99,835.88 947.00,828.00
             947.00,828.00 947.00,790.00 947.00,790.00
             947.00,790.00 944.17,765.00 944.17,765.00
             944.17,765.00 943.63,757.00 943.63,757.00
             943.63,757.00 937.05,731.00 937.05,731.00
             937.05,731.00 922.34,695.00 922.34,695.00
             920.26,689.64 917.57,681.69 919.74,676.00
             921.28,671.95 928.71,665.33 932.00,662.00
             938.43,655.49 944.19,648.35 949.62,641.00
             962.89,623.06 979.43,590.73 988.73,570.00
             988.73,570.00 999.55,546.00 999.55,546.00
             1001.49,541.39 1003.58,537.15 1001.72,532.04
             999.85,526.89 985.17,519.31 980.00,516.48
             980.00,516.48 936.00,492.21 936.00,492.21
             931.30,489.49 921.56,485.07 918.48,481.12
             915.07,476.73 920.72,470.87 922.97,467.00
             928.15,457.87 937.64,433.07 922.97,427.60
             917.26,425.45 911.48,428.62 907.00,431.92
             898.36,438.29 886.21,452.16 879.91,461.00
             877.23,464.76 873.12,471.18 873.71,475.99
             874.51,482.36 889.71,491.75 895.00,495.61
             895.00,495.61 946.00,535.58 946.00,535.58
             950.38,539.31 961.53,548.21 962.35,554.00
             962.85,557.60 959.35,560.55 957.17,562.99
             957.17,562.99 937.00,583.00 937.00,583.00
             937.00,583.00 900.00,617.83 900.00,617.83
             892.82,624.31 887.07,625.79 887.00,636.00
             887.00,636.00 887.00,654.00 887.00,654.00
             886.99,660.09 883.67,680.57 881.46,686.00
             879.79,690.12 877.08,694.20 872.00,693.60
             866.69,692.97 862.45,687.15 862.41,682.00
             862.41,682.00 865.83,661.00 865.83,661.00
             866.19,657.64 866.48,653.28 863.69,650.87
             861.05,648.59 841.51,641.85 837.00,640.33
             837.00,640.33 772.00,621.00 772.00,621.00
             767.36,629.49 763.71,636.18 762.30,646.00 Z
           M 843.72,446.17
           C 846.06,450.90 844.49,457.78 838.98,459.42
             830.25,462.02 816.37,444.57 829.04,438.65
             834.66,437.66 841.12,440.89 843.72,446.17 Z
           M 305.76,459.00
           C 305.04,464.21 294.73,476.73 290.00,478.74
             282.72,481.83 277.52,473.35 278.37,467.00
             279.37,459.43 286.58,451.52 293.00,447.95
             299.95,446.24 306.79,451.59 305.76,459.00 Z
           M 355.37,493.90
           C 353.83,496.24 351.76,498.18 348.98,498.93
             343.42,500.44 334.83,494.88 334.23,488.00
             333.72,482.25 337.07,477.34 342.01,474.83
             349.37,474.03 362.84,482.50 355.37,493.90 Z
           M 810.01,503.90
           C 817.33,502.27 830.19,513.78 836.00,518.13
             839.64,520.85 847.19,525.55 848.26,530.04
             849.74,536.28 842.59,541.47 837.00,541.61
             832.60,541.72 826.64,538.67 823.00,536.36
             823.00,536.36 811.04,527.54 811.04,527.54
             802.34,519.94 805.97,516.12 802.00,509.00
             804.44,507.15 806.96,504.59 810.01,503.90 Z
           M 338.86,735.00
           C 340.22,738.24 341.12,741.08 343.53,743.79
             345.48,745.98 349.46,748.40 352.00,750.12
             355.22,752.29 362.96,757.06 366.89,756.50
             370.59,755.98 370.99,751.72 372.44,749.00
             374.43,745.26 379.26,740.28 383.00,738.29
             387.24,736.03 391.84,736.93 396.00,738.92
             407.74,744.51 410.24,760.22 410.91,772.00
             411.30,778.94 406.06,795.03 400.81,799.58
             398.61,801.50 395.74,802.46 393.00,803.33
             387.84,804.95 385.65,804.86 381.00,801.91
             376.43,799.00 373.79,797.11 371.63,792.00
             369.97,788.07 369.00,781.34 365.73,778.85
             365.73,778.85 356.00,774.91 356.00,774.91
             348.48,771.43 334.72,764.06 329.46,757.96
             324.92,752.69 323.21,749.15 320.43,743.00
             319.16,740.20 317.28,736.92 316.51,734.00
             315.68,730.52 315.80,715.70 316.51,712.00
             316.51,712.00 319.42,701.00 319.42,701.00
             319.42,701.00 322.30,692.00 322.30,692.00
             323.68,689.19 326.04,687.17 326.40,684.00
             326.40,684.00 324.95,671.00 324.95,671.00
             324.97,668.13 325.69,656.83 324.95,655.17
             323.55,652.42 315.88,647.96 313.00,645.88
             303.34,638.91 293.67,632.27 285.00,624.00
             281.62,620.78 270.66,612.13 270.16,608.00
             269.86,605.45 271.99,602.91 273.43,601.00
             273.43,601.00 283.87,587.00 283.87,587.00
             283.87,587.00 311.81,548.00 311.81,548.00
             314.23,544.41 321.77,532.82 322.07,529.01
             322.54,522.89 312.74,520.02 308.00,518.96
             304.23,518.11 297.42,516.06 294.00,516.08
             286.30,516.14 273.18,522.00 267.92,527.67
             261.98,534.07 261.51,539.91 266.61,547.00
             269.46,550.97 274.41,554.58 273.32,560.00
             272.59,563.56 266.68,573.53 264.60,577.00
             264.60,577.00 248.69,604.00 248.69,604.00
             246.62,607.37 239.94,616.66 239.55,620.00
             239.04,624.33 249.09,635.98 251.99,640.00
             251.99,640.00 286.63,689.00 286.63,689.00
             289.77,693.43 297.85,703.73 296.88,709.00
             296.88,709.00 287.69,728.00 287.69,728.00
             281.69,741.62 276.63,755.75 272.37,770.00
             272.37,770.00 261.75,817.00 261.75,817.00
             261.75,817.00 260.04,824.00 260.04,824.00
             260.04,824.00 258.58,836.00 258.58,836.00
             256.47,851.24 256.03,846.51 256.00,863.00
             256.00,863.00 255.01,880.00 255.01,880.00
             255.01,880.00 256.00,892.00 256.00,892.00
             256.16,906.31 260.15,918.53 264.48,932.00
             264.48,932.00 271.80,956.00 271.80,956.00
             279.69,976.91 305.35,1008.71 321.04,1025.00
             321.04,1025.00 339.99,1044.00 339.99,1044.00
             342.60,1046.68 347.09,1051.18 347.64,1055.00
             348.40,1060.22 338.97,1070.17 335.58,1074.28
             335.58,1074.28 298.63,1121.00 298.63,1121.00
             298.63,1121.00 288.22,1135.00 288.22,1135.00
             286.87,1137.04 284.87,1140.18 285.70,1142.74
             286.45,1145.04 290.00,1146.77 292.00,1147.87
             292.00,1147.87 308.00,1156.42 308.00,1156.42
             323.34,1164.09 336.55,1169.03 353.00,1173.59
             353.00,1173.59 360.00,1175.88 360.00,1175.88
             360.00,1175.88 368.00,1175.88 368.00,1175.88
             374.73,1176.55 382.68,1177.90 388.96,1174.43
             399.01,1168.88 393.98,1160.23 387.96,1154.01
             378.92,1144.68 367.32,1138.42 356.00,1132.36
             351.77,1130.10 344.70,1126.53 344.50,1121.00
             344.31,1115.87 352.32,1108.77 355.58,1105.00
             355.58,1105.00 384.32,1072.83 384.32,1072.83
             386.67,1070.26 395.09,1061.94 395.64,1058.95
             396.39,1054.87 387.02,1044.52 384.37,1041.00
             384.37,1041.00 357.99,1007.00 357.99,1007.00
             355.18,1003.37 348.16,995.14 347.30,991.00
             344.79,978.87 363.09,978.19 371.00,976.32
             371.00,976.32 378.00,974.37 378.00,974.37
             378.00,974.37 385.00,973.56 385.00,973.56
             385.00,973.56 395.00,971.46 395.00,971.46
             395.00,971.46 407.00,969.81 407.00,969.81
             407.00,969.81 414.00,968.21 414.00,968.21
             414.00,968.21 429.00,966.84 429.00,966.84
             429.00,966.84 454.00,964.00 454.00,964.00
             454.00,964.00 482.00,964.00 482.00,964.00
             484.99,964.00 489.16,963.69 491.57,965.74
             494.52,968.24 494.04,973.47 494.00,977.00
             493.93,983.18 492.97,985.40 492.05,991.00
             492.05,991.00 492.05,1001.00 492.05,1001.00
             492.05,1001.00 489.44,1012.00 489.44,1012.00
             489.44,1012.00 488.72,1021.00 488.72,1021.00
             488.72,1021.00 486.30,1035.00 486.30,1035.00
             486.30,1035.00 485.68,1046.00 485.68,1046.00
             485.68,1046.00 483.17,1057.00 483.17,1057.00
             483.17,1057.00 481.49,1075.00 481.49,1075.00
             479.34,1085.64 480.70,1083.36 479.83,1092.00
             479.83,1092.00 478.09,1103.00 478.09,1103.00
             477.90,1105.68 477.63,1110.37 479.60,1112.42
             481.56,1114.45 486.30,1114.75 489.00,1115.05
             489.00,1115.05 513.00,1117.04 513.00,1117.04
             513.00,1117.04 527.00,1117.04 527.00,1117.04
             527.00,1117.04 539.00,1118.00 539.00,1118.00
             539.00,1118.00 579.00,1118.00 579.00,1118.00
             582.38,1117.99 585.74,1118.07 589.00,1117.01
             597.73,1114.16 600.54,1106.43 594.32,1099.29
             592.60,1097.32 590.13,1095.28 588.00,1093.77
             572.77,1082.99 551.53,1076.34 533.00,1076.00
             520.03,1075.76 523.94,1066.90 524.00,1058.00
             524.00,1058.00 527.00,1027.00 527.00,1027.00
             527.00,1027.00 528.00,1006.00 528.00,1006.00
             528.00,1006.00 529.83,991.00 529.83,991.00
             529.83,991.00 531.17,968.00 531.17,968.00
             531.17,968.00 534.00,939.00 534.00,939.00
             534.00,939.00 534.00,934.00 534.00,934.00
             533.81,923.82 527.27,922.12 519.00,919.41
             519.00,919.41 479.00,911.88 479.00,911.88
             473.06,909.98 465.49,908.61 463.11,901.98
             461.55,898.56 462.68,889.81 463.11,886.00
             463.11,886.00 465.54,877.00 465.54,877.00
             465.54,877.00 472.52,844.00 472.52,844.00
             472.52,844.00 474.66,837.00 474.66,837.00
             474.66,837.00 490.49,770.00 490.49,770.00
             496.70,745.49 504.66,706.21 517.03,685.01
             520.80,678.57 528.82,670.68 534.15,665.11
             534.15,665.11 564.46,635.10 564.46,635.10
             564.46,635.10 577.95,623.65 577.95,623.65
             580.18,621.76 582.17,620.21 581.52,616.96
             580.83,613.51 572.03,604.32 569.25,601.00
             560.98,591.14 543.75,577.03 533.58,568.27
             529.09,564.40 518.47,554.90 515.84,549.83
             515.10,547.73 514.83,545.21 515.84,543.00
             516.98,539.05 532.49,525.34 521.86,516.51
             510.13,506.77 491.59,524.71 484.28,533.00
             482.19,535.38 477.87,539.94 477.37,543.00
             476.61,547.70 483.91,554.56 486.87,558.00
             486.87,558.00 508.88,582.46 508.88,582.46
             508.88,582.46 521.01,596.00 521.01,596.00
             524.54,599.60 534.96,608.27 533.30,613.83
             532.09,617.88 520.73,624.61 517.00,627.20
             517.00,627.20 479.00,654.12 479.00,654.12
             476.02,656.15 465.39,662.13 464.03,664.38
             462.15,667.46 464.45,673.46 465.00,677.00
             477.08,678.40 482.64,692.64 485.21,703.00
             485.21,703.00 487.89,711.00 487.89,711.00
             488.02,712.90 487.99,715.06 487.89,717.00
             487.89,717.00 487.89,729.00 487.89,729.00
             487.94,738.17 482.19,749.67 476.84,757.00
             473.12,762.10 468.77,767.27 463.00,770.00
             462.76,775.17 461.90,781.31 459.67,786.00
             456.72,792.22 448.59,800.06 441.00,797.26
             436.61,795.64 432.23,790.07 430.14,786.00
             425.05,776.13 425.67,756.53 431.21,747.00
             435.53,739.58 443.80,734.95 451.99,739.42
             455.31,741.23 457.45,744.31 460.00,747.00
             464.30,739.44 470.49,728.81 467.00,720.00
             463.78,733.50 448.46,738.98 443.48,727.00
             440.48,719.78 443.28,716.64 444.63,710.00
             444.63,710.00 445.96,699.00 445.96,699.00
             446.26,691.19 444.66,683.44 442.59,676.00
             436.92,655.56 428.15,642.57 407.00,635.67
             403.66,634.58 394.27,632.10 391.00,632.02
             372.27,631.50 345.28,648.76 345.17,669.00
             345.17,669.00 345.17,681.00 345.17,681.00
             347.24,691.13 355.83,700.31 364.00,705.96
             368.81,709.29 378.49,713.45 381.77,717.11
             389.52,725.72 377.43,728.28 371.00,727.82
             353.57,726.57 350.29,717.80 338.00,709.00
             333.34,719.97 334.45,724.46 338.86,735.00 Z
           M 402.98,540.00
           C 402.77,546.02 400.20,549.00 397.20,554.00
             393.99,559.35 388.31,569.00 384.56,573.58
             382.05,576.65 378.94,580.21 375.00,581.34
             366.05,583.89 362.67,576.30 365.61,569.00
             365.61,569.00 384.25,541.00 384.25,541.00
             387.46,536.05 388.02,531.88 394.04,529.74
             402.12,529.58 403.24,532.77 402.98,540.00 Z
           M 780.25,554.00
           C 781.78,558.25 779.53,564.89 774.98,566.36
             769.36,568.18 757.22,559.14 758.75,552.00
             759.54,548.32 761.93,546.43 765.02,544.75
             770.98,543.63 778.15,548.19 780.25,554.00 Z
           M 437.57,560.00
           C 436.46,568.34 428.85,586.15 419.99,588.57
             414.49,590.07 407.22,587.95 408.29,581.00
             408.85,577.34 412.61,572.41 414.50,569.00
             419.12,560.64 419.95,550.09 429.00,546.83
             437.35,546.65 438.50,553.00 437.57,560.00 Z
           M 1053.00,710.00
           C 1053.00,710.00 1052.09,722.00 1052.09,722.00
             1051.54,729.95 1053.33,741.53 1042.00,742.80
             1032.62,743.85 1032.01,738.43 1031.91,731.00
             1031.91,731.00 1031.91,704.00 1031.91,704.00
             1031.91,704.00 1030.32,697.00 1030.32,697.00
             1030.32,697.00 1029.16,690.00 1029.16,690.00
             1027.79,685.55 1024.44,678.85 1021.79,675.00
             1019.53,671.70 1016.17,668.25 1016.29,664.00
             1016.51,656.70 1023.57,656.94 1029.00,656.75
             1052.52,659.02 1053.03,692.21 1053.00,710.00 Z
           M 1006.10,681.00
           C 1012.91,690.87 1024.05,717.50 1007.00,723.30
             1004.24,724.24 999.84,724.42 998.02,721.69
             998.02,721.69 995.73,702.00 995.73,702.00
             993.89,693.01 978.30,680.13 993.04,671.91
             998.87,671.16 1003.02,676.53 1006.10,681.00 Z
           M 237.61,715.00
           C 236.56,719.96 231.91,726.91 229.70,732.00
             225.56,741.53 221.10,755.76 219.72,766.00
             219.25,769.50 218.20,783.63 216.83,785.69
             215.84,787.16 214.64,787.61 212.96,787.85
             202.77,789.33 199.10,779.20 199.00,771.00
             198.79,752.80 203.28,735.17 211.61,719.00
             214.94,712.55 218.44,705.41 225.00,701.85
             235.63,698.94 239.79,704.77 237.61,715.00 Z
           M 609.07,770.00
           C 609.07,770.00 599.83,795.00 599.83,795.00
             597.52,802.67 595.91,817.85 596.00,826.00
             596.09,833.55 600.21,845.72 591.95,850.27
             580.69,856.47 576.10,839.96 576.00,832.00
             575.75,810.66 576.41,794.83 585.64,775.00
             588.68,768.47 592.09,761.32 598.04,757.02
             608.23,753.60 610.47,761.68 609.07,770.00 Z
           M 648.84,782.00
           C 648.84,782.00 640.01,804.00 640.01,804.00
             640.01,804.00 633.21,827.00 633.21,827.00
             633.21,827.00 631.83,842.00 631.83,842.00
             631.52,845.12 630.95,846.66 631.18,850.00
             631.18,850.00 633.38,871.00 633.38,871.00
             633.38,871.00 638.50,892.00 638.50,892.00
             639.41,898.94 634.52,905.89 627.00,904.76
             622.05,904.01 619.58,900.31 617.83,896.00
             615.20,889.51 613.45,876.19 612.91,869.00
             612.91,869.00 610.02,849.00 610.02,849.00
             609.88,842.19 611.54,836.58 612.56,830.00
             612.56,830.00 613.29,821.00 613.29,821.00
             614.57,811.20 618.08,801.13 621.75,792.00
             625.23,783.36 629.89,770.39 639.00,766.69
             649.52,765.49 651.10,773.64 648.84,782.00 Z
           M 687.74,810.00
           C 687.74,810.00 682.93,825.00 682.93,825.00
             679.41,835.12 675.13,849.28 676.17,860.00
             676.83,866.85 681.55,879.82 671.96,882.57
             661.07,885.70 656.14,879.14 656.00,869.00
             656.00,869.00 656.00,848.00 656.00,848.00
             656.04,840.14 660.73,823.40 663.87,816.00
             667.19,808.20 668.33,802.55 677.00,799.57
             683.53,798.79 688.43,803.27 687.74,810.00 Z
           M 965.66,977.53
           C 972.05,983.56 969.40,991.76 967.41,999.00
             963.18,1014.38 954.23,1030.06 945.14,1043.09
             941.68,1048.04 935.98,1055.72 930.00,1057.43
             922.99,1059.44 914.80,1058.11 916.23,1049.00
             916.99,1044.14 924.05,1035.85 927.00,1031.00
             934.05,1019.41 941.29,1006.72 946.09,994.00
             949.21,985.71 948.37,978.40 958.00,974.76
             961.45,974.63 963.02,975.04 965.66,977.53 Z
           M 1014.26,980.65
           C 1016.29,982.94 1016.06,987.10 1015.99,990.00
             1015.82,997.02 1011.50,1006.53 1008.55,1013.00
             995.66,1041.35 987.19,1057.53 967.20,1082.00
             963.33,1086.73 953.56,1098.28 948.00,1100.28
             946.04,1100.98 944.05,1100.97 942.00,1101.00
             936.83,1101.07 927.06,1100.97 928.37,1093.00
             928.96,1089.41 933.50,1085.55 935.99,1083.00
             935.99,1083.00 948.74,1068.00 948.74,1068.00
             963.93,1049.32 978.86,1024.90 988.86,1003.00
             995.86,987.65 994.21,978.83 1007.00,977.77
             1009.69,978.07 1012.33,978.47 1014.26,980.65 Z
           M 225.64,1042.06
           C 225.64,1042.06 230.88,1049.91 230.88,1049.91
             236.09,1056.89 245.73,1065.67 252.91,1070.69
             257.02,1073.55 260.40,1075.45 265.00,1077.45
             267.47,1078.52 272.47,1080.28 273.98,1082.49
             276.05,1085.55 275.18,1093.19 269.96,1095.98
             264.77,1098.75 256.90,1096.05 252.00,1093.85
             238.59,1087.81 224.00,1075.86 215.20,1064.00
             209.38,1055.72 204.81,1046.20 215.20,1039.02
             219.97,1037.37 222.41,1037.71 225.64,1042.06 Z
           M 1039.37,1051.00
           C 1037.73,1056.91 1032.17,1064.77 1028.79,1070.00
             1020.83,1082.31 1012.20,1094.83 1002.77,1106.05
             996.98,1112.93 991.93,1118.64 982.00,1117.66
             977.14,1117.19 969.60,1115.43 970.91,1109.00
             971.80,1104.60 983.71,1092.32 987.34,1088.28
             987.34,1088.28 1004.71,1067.17 1004.71,1067.17
             1004.71,1067.17 1010.48,1059.99 1010.48,1059.99
             1010.48,1059.99 1024.34,1039.02 1024.34,1039.02
             1034.32,1035.24 1042.59,1039.40 1039.37,1051.00 Z
           M 204.00,1087.33
           C 208.15,1088.20 219.00,1099.43 223.00,1102.87
             224.86,1104.46 229.16,1107.61 230.40,1109.30
             233.15,1113.03 232.07,1118.72 227.94,1120.95
             224.99,1122.59 219.04,1122.17 216.00,1120.95
             205.63,1116.71 186.64,1098.96 199.21,1088.02
             201.12,1087.36 201.82,1086.88 204.00,1087.33 Z
           M 214.96,1155.81
           C 224.83,1162.78 229.16,1165.26 240.00,1170.58
             244.24,1172.66 249.10,1173.58 249.85,1179.00
             250.64,1184.67 247.25,1189.21 241.99,1191.02
             236.87,1192.78 231.49,1189.64 227.00,1187.41
             220.66,1184.26 202.88,1173.96 198.99,1168.83
             194.64,1163.08 195.22,1154.46 201.06,1150.08
             206.48,1148.90 210.68,1152.78 214.96,1155.81 Z
           M 765.00,1197.00
           C 765.00,1197.00 764.04,1216.00 764.04,1216.00
             764.04,1216.00 762.83,1225.43 762.83,1225.43
             762.83,1225.43 753.00,1227.91 753.00,1227.91
             753.00,1227.91 726.97,1230.00 726.97,1230.00
             724.90,1222.60 726.41,1216.33 726.97,1209.00
             726.97,1209.00 726.97,1198.00 726.97,1198.00
             726.97,1198.00 765.00,1197.00 765.00,1197.00 Z
           M 638.00,1336.17
           C 638.00,1336.17 629.60,1334.98 629.60,1334.98
             629.60,1334.98 627.96,1327.00 627.96,1327.00
             627.96,1327.00 627.96,1313.00 627.96,1313.00
             627.96,1313.00 627.00,1301.00 627.00,1301.00
             627.00,1301.00 627.00,1210.00 627.00,1210.00
             627.00,1210.00 628.60,1202.02 628.60,1202.02
             628.60,1202.02 638.00,1200.83 638.00,1200.83
             638.00,1200.83 665.00,1199.00 665.00,1199.00
             665.00,1199.00 664.00,1212.00 664.00,1212.00
             664.00,1212.00 663.00,1245.00 663.00,1245.00
             666.20,1242.09 668.96,1239.67 673.00,1237.95
             678.02,1235.82 682.68,1235.94 688.00,1236.00
             704.28,1236.20 714.81,1249.33 715.00,1265.00
             715.00,1265.00 715.00,1321.00 715.00,1321.00
             715.00,1324.06 715.04,1331.05 713.02,1333.40
             711.21,1335.51 706.63,1334.92 704.00,1335.17
             704.00,1335.17 679.00,1337.00 679.00,1337.00
             679.00,1337.00 679.00,1282.00 679.00,1282.00
             678.93,1276.62 677.94,1270.06 671.00,1270.06
             664.26,1270.06 663.07,1276.75 663.00,1282.00
             663.00,1282.00 663.00,1338.00 663.00,1338.00
             663.00,1338.00 638.00,1336.17 638.00,1336.17 Z
           M 865.00,1219.00
           C 864.98,1215.40 863.13,1205.04 865.00,1202.74
             866.83,1200.47 872.27,1201.10 875.00,1200.91
             875.00,1200.91 903.00,1199.00 903.00,1199.00
             903.00,1199.00 903.00,1212.00 903.00,1212.00
             903.00,1212.00 902.00,1232.00 902.00,1232.00
             902.00,1232.00 901.00,1254.00 901.00,1254.00
             901.00,1254.00 901.00,1268.00 901.00,1268.00
             901.00,1268.00 910.69,1246.00 910.69,1246.00
             910.69,1246.00 915.64,1236.99 915.64,1236.99
             915.64,1236.99 927.00,1236.42 927.00,1236.42
             927.00,1236.42 953.00,1239.00 953.00,1239.00
             953.00,1239.00 938.78,1268.00 938.78,1268.00
             938.78,1268.00 933.14,1281.00 933.14,1281.00
             933.14,1281.00 940.00,1294.00 940.00,1294.00
             940.00,1294.00 957.00,1321.00 957.00,1321.00
             957.00,1321.00 921.00,1338.00 921.00,1338.00
             921.00,1338.00 900.00,1298.00 900.00,1298.00
             900.00,1298.00 900.00,1311.00 900.00,1311.00
             900.00,1311.00 901.00,1328.00 901.00,1328.00
             901.00,1328.00 899.43,1334.83 899.43,1334.83
             899.43,1334.83 890.00,1336.28 890.00,1336.28
             890.00,1336.28 865.00,1338.00 865.00,1338.00
             865.00,1338.00 865.00,1219.00 865.00,1219.00 Z
           M 572.39,1277.04
           C 570.72,1279.10 569.57,1281.35 569.23,1284.00
             568.43,1290.23 573.31,1296.94 579.00,1299.11
             583.56,1300.85 587.79,1299.71 592.00,1297.74
             594.76,1296.44 598.76,1293.74 601.83,1295.13
             603.98,1296.10 606.67,1300.06 608.13,1302.00
             608.13,1302.00 619.57,1317.00 619.57,1317.00
             621.49,1319.52 624.24,1322.56 622.29,1325.82
             620.71,1328.48 615.81,1330.80 613.00,1331.99
             604.86,1335.43 597.83,1336.99 589.00,1337.00
             589.00,1337.00 581.00,1337.00 581.00,1337.00
             564.85,1336.92 549.06,1328.29 539.90,1315.00
             534.73,1307.49 532.91,1300.89 531.85,1292.00
             528.19,1261.37 550.65,1234.37 582.00,1234.00
             600.27,1233.79 607.20,1234.72 623.00,1245.00
             620.52,1252.47 607.30,1267.53 602.00,1275.00
             590.65,1271.79 582.08,1265.09 572.39,1277.04 Z
           M 810.39,1277.04
           C 808.72,1279.10 807.57,1281.35 807.23,1284.00
             806.43,1290.23 811.31,1296.94 817.00,1299.11
             821.56,1300.85 825.79,1299.71 830.00,1297.74
             832.76,1296.44 836.76,1293.74 839.83,1295.13
             841.98,1296.10 844.67,1300.06 846.13,1302.00
             846.13,1302.00 857.57,1317.00 857.57,1317.00
             859.49,1319.52 862.24,1322.56 860.29,1325.82
             858.71,1328.48 853.81,1330.80 851.00,1331.99
             842.86,1335.43 835.83,1336.99 827.00,1337.00
             827.00,1337.00 819.00,1337.00 819.00,1337.00
             802.85,1336.92 787.06,1328.29 777.90,1315.00
             772.73,1307.49 770.91,1300.89 769.85,1292.00
             766.19,1261.37 788.65,1234.37 820.00,1234.00
             838.27,1233.79 845.20,1234.72 861.00,1245.00
             858.52,1252.47 845.30,1267.53 840.00,1275.00
             828.65,1271.79 820.08,1265.09 810.39,1277.04 Z
           M 113.00,1305.26
           C 115.52,1304.89 119.78,1304.24 120.24,1301.05
             120.88,1296.62 107.35,1293.59 104.00,1292.13
             93.21,1287.41 88.14,1279.73 88.00,1268.00
             87.95,1263.90 87.78,1259.94 89.10,1256.00
             96.07,1235.26 118.02,1234.79 136.00,1235.00
             140.12,1235.05 154.67,1236.27 156.98,1239.51
             158.23,1241.27 158.00,1244.88 158.00,1247.00
             158.01,1253.47 158.70,1263.01 157.00,1269.00
             151.75,1267.61 146.42,1266.86 141.00,1266.51
             138.30,1266.34 126.62,1267.12 129.03,1272.08
             130.97,1276.06 141.81,1278.35 146.00,1280.09
             157.06,1284.68 161.94,1293.44 162.00,1305.00
             162.00,1305.00 162.00,1309.00 162.00,1309.00
             161.74,1329.89 140.97,1337.91 123.00,1338.00
             123.00,1338.00 110.00,1338.00 110.00,1338.00
             100.77,1337.99 97.65,1336.74 89.00,1335.00
             89.00,1335.00 89.00,1303.00 89.00,1303.00
             97.07,1303.68 104.66,1306.51 113.00,1305.26 Z
           M 173.18,1330.82
           C 167.28,1324.90 166.01,1317.96 166.00,1310.00
             166.00,1310.00 166.00,1246.00 166.00,1246.00
             166.00,1243.70 165.62,1239.59 167.60,1238.02
             169.34,1236.64 174.61,1237.06 177.00,1236.83
             177.00,1236.83 202.87,1235.00 202.87,1235.00
             202.87,1235.00 202.87,1279.00 202.87,1279.00
             202.87,1279.00 202.87,1298.00 202.87,1298.00
             204.75,1306.67 216.30,1306.46 216.96,1295.00
             216.96,1295.00 216.00,1279.00 216.00,1279.00
             216.00,1279.00 216.00,1246.00 216.00,1246.00
             216.00,1243.70 215.62,1239.59 217.60,1238.02
             219.34,1236.64 224.61,1237.06 227.00,1236.83
             227.00,1236.83 255.00,1235.00 255.00,1235.00
             255.00,1235.00 255.00,1255.00 255.00,1255.00
             255.00,1255.00 254.00,1271.00 254.00,1271.00
             254.00,1271.00 254.00,1294.00 254.00,1294.00
             254.00,1294.00 253.00,1309.00 253.00,1309.00
             253.00,1309.00 253.00,1329.00 253.00,1329.00
             253.00,1329.00 251.40,1334.98 251.40,1334.98
             251.40,1334.98 244.00,1336.00 244.00,1336.00
             244.00,1336.00 240.00,1336.00 240.00,1336.00
             240.00,1336.00 221.00,1337.00 221.00,1337.00
             221.00,1337.00 220.00,1323.00 220.00,1323.00
             214.65,1341.13 184.92,1342.57 173.18,1330.82 Z
           M 374.22,1255.00
           C 381.40,1244.57 393.43,1237.11 406.00,1235.15
             406.00,1235.15 420.00,1235.15 420.00,1235.15
             425.15,1235.06 430.17,1236.10 435.00,1237.88
             444.19,1241.26 452.34,1248.05 457.96,1256.00
             459.65,1258.39 462.87,1262.92 462.19,1265.96
             461.45,1269.29 452.91,1275.11 450.00,1277.35
             450.00,1277.35 414.00,1305.00 414.00,1305.00
             420.75,1305.06 426.27,1306.21 433.00,1303.89
             437.87,1302.21 441.77,1298.82 446.00,1296.00
             450.04,1301.53 461.11,1319.03 463.00,1325.00
             455.80,1329.02 452.23,1331.77 444.00,1334.48
             423.32,1341.30 395.33,1340.02 379.09,1323.91
             373.15,1318.01 370.46,1312.34 367.00,1305.00
             360.60,1332.25 325.69,1348.92 302.00,1332.00
             302.00,1332.00 303.00,1358.00 303.00,1358.00
             303.00,1358.00 301.40,1363.98 301.40,1363.98
             301.40,1363.98 292.00,1365.28 292.00,1365.28
             292.00,1365.28 266.96,1367.00 266.96,1367.00
             266.96,1367.00 266.96,1351.00 266.96,1351.00
             266.96,1351.00 266.00,1339.00 266.00,1339.00
             266.00,1339.00 266.00,1286.00 266.00,1286.00
             266.00,1286.00 265.00,1270.00 265.00,1270.00
             265.00,1270.00 265.00,1247.00 265.00,1247.00
             265.00,1247.00 266.60,1239.02 266.60,1239.02
             266.60,1239.02 276.00,1237.72 276.00,1237.72
             276.00,1237.72 301.00,1236.00 301.00,1236.00
             301.00,1236.00 301.00,1245.00 301.00,1245.00
             305.02,1242.06 308.21,1239.26 313.00,1237.55
             318.02,1235.75 322.77,1235.94 328.00,1236.00
             338.46,1236.13 347.61,1240.69 354.96,1248.04
             362.20,1255.27 363.61,1260.54 368.00,1269.00
             368.95,1263.95 371.31,1259.23 374.22,1255.00 Z
           M 1002.00,1338.00
           C 994.53,1337.91 987.59,1335.66 981.00,1332.22
             967.41,1325.11 957.51,1312.37 955.15,1297.00
             955.15,1297.00 955.15,1283.00 955.15,1283.00
             955.14,1271.09 960.82,1257.56 969.09,1249.04
             985.89,1231.72 1018.00,1229.83 1037.00,1244.53
             1041.23,1247.80 1053.48,1260.18 1052.19,1265.96
             1051.45,1269.29 1042.91,1275.11 1040.00,1277.35
             1040.00,1277.35 1004.00,1305.00 1004.00,1305.00
             1010.75,1305.06 1016.27,1306.21 1023.00,1303.89
             1027.87,1302.21 1031.77,1298.82 1036.00,1296.00
             1040.04,1301.53 1051.11,1319.03 1053.00,1325.00
             1031.48,1337.03 1026.59,1338.29 1002.00,1338.00 Z
           M 468.00,1322.00
           C 468.00,1322.00 468.00,1247.00 468.00,1247.00
             468.00,1247.00 469.60,1239.02 469.60,1239.02
             469.60,1239.02 478.00,1237.72 478.00,1237.72
             478.00,1237.72 502.00,1236.00 502.00,1236.00
             502.00,1236.00 503.00,1252.00 503.00,1252.00
             506.50,1234.79 522.54,1236.00 536.00,1236.00
             536.00,1236.00 527.00,1273.00 527.00,1273.00
             518.18,1271.05 508.67,1275.00 505.64,1284.00
             503.03,1291.70 504.02,1316.51 504.00,1326.00
             504.00,1328.30 504.38,1332.41 502.40,1333.98
             500.84,1335.22 496.16,1335.03 494.00,1335.28
             494.00,1335.28 469.00,1337.00 469.00,1337.00
             469.00,1337.00 468.00,1322.00 468.00,1322.00 Z
           M 1069.00,1336.83
           C 1069.00,1336.83 1059.60,1334.98 1059.60,1334.98
             1059.60,1334.98 1058.00,1327.00 1058.00,1327.00
             1058.00,1327.00 1058.00,1274.00 1058.00,1274.00
             1058.00,1274.00 1057.04,1262.00 1057.04,1262.00
             1057.04,1262.00 1057.04,1248.00 1057.04,1248.00
             1057.04,1248.00 1058.60,1240.02 1058.60,1240.02
             1058.60,1240.02 1067.00,1238.72 1067.00,1238.72
             1067.00,1238.72 1093.00,1237.00 1093.00,1237.00
             1093.00,1237.00 1094.00,1249.00 1094.00,1249.00
             1102.22,1233.82 1126.56,1232.91 1137.82,1245.04
             1144.32,1252.05 1145.99,1259.78 1146.00,1269.00
             1146.00,1269.00 1146.00,1327.00 1146.00,1327.00
             1146.00,1329.30 1146.38,1333.41 1144.40,1334.98
             1142.75,1336.28 1137.35,1336.01 1135.00,1336.28
             1135.00,1336.28 1110.00,1338.00 1110.00,1338.00
             1110.00,1338.00 1110.00,1281.00 1110.00,1281.00
             1109.94,1277.98 1109.93,1275.65 1107.70,1273.30
             1102.89,1268.22 1095.87,1272.11 1094.91,1278.00
             1094.91,1278.00 1094.91,1296.00 1094.91,1296.00
             1094.91,1296.00 1094.91,1338.00 1094.91,1338.00
             1094.91,1338.00 1069.00,1336.83 1069.00,1336.83 Z
           M 727.00,1249.00
           C 727.00,1249.00 728.57,1241.17 728.57,1241.17
             728.57,1241.17 738.00,1239.83 738.00,1239.83
             738.00,1239.83 764.00,1238.00 764.00,1238.00
             764.00,1238.00 764.00,1270.00 764.00,1270.00
             764.00,1270.00 763.00,1287.00 763.00,1287.00
             763.00,1287.00 763.00,1323.00 763.00,1323.00
             763.00,1326.04 763.17,1332.06 761.07,1334.40
             759.17,1336.50 754.69,1335.91 752.00,1336.17
             752.00,1336.17 727.00,1338.00 727.00,1338.00
             727.00,1338.00 727.00,1249.00 727.00,1249.00 Z
           M 414.00,1264.56
           C 406.40,1265.47 400.97,1272.63 400.39,1280.00
             400.21,1282.31 400.70,1284.71 401.00,1287.00
             406.43,1284.69 422.19,1272.57 426.00,1268.00
             422.22,1265.93 418.47,1264.02 414.00,1264.56 Z
           M 1004.00,1264.56
           C 996.40,1265.47 990.97,1272.63 990.39,1280.00
             990.21,1282.31 990.70,1284.71 991.00,1287.00
             996.43,1284.69 1012.19,1272.57 1016.00,1268.00
             1012.22,1265.93 1008.47,1264.02 1004.00,1264.56 Z
           M 300.01,1283.00
           C 296.29,1292.19 302.13,1301.44 312.00,1301.96
             320.09,1302.38 327.74,1299.30 331.91,1292.00
             337.75,1281.79 330.83,1269.58 315.00,1271.33
             308.56,1272.88 302.60,1276.59 300.01,1283.00 Z" />
</svg>
