<?xml version="1.0" encoding="UTF-8" standalone="no"?>
<!-- Created with Inkscape (http://www.inkscape.org/) -->

<svg
   xmlns:dc="http://purl.org/dc/elements/1.1/"
   xmlns:cc="http://creativecommons.org/ns#"
   xmlns:rdf="http://www.w3.org/1999/02/22-rdf-syntax-ns#"
   xmlns:svg="http://www.w3.org/2000/svg"
   xmlns="http://www.w3.org/2000/svg"
   xmlns:sodipodi="http://sodipodi.sourceforge.net/DTD/sodipodi-0.dtd"
   xmlns:inkscape="http://www.inkscape.org/namespaces/inkscape"
   width="100mm"
   height="100mm"
   viewBox="0 0 100 100"
   version="1.1"
   id="svg4821"
   inkscape:version="0.92.0 r15299"
   sodipodi:docname="アクリル_DD.svg">
  <defs
     id="defs4815" />
  <sodipodi:namedview
     id="base"
     pagecolor="#ffffff"
     bordercolor="#666666"
     borderopacity="1.0"
     inkscape:pageopacity="0.0"
     inkscape:pageshadow="2"
     inkscape:zoom="0.49497475"
     inkscape:cx="-19.206178"
     inkscape:cy="-61.618867"
     inkscape:document-units="mm"
     inkscape:current-layer="layer1"
     showgrid="false"
     inkscape:snap-global="false"
     inkscape:window-width="1366"
     inkscape:window-height="705"
     inkscape:window-x="-8"
     inkscape:window-y="-8"
     inkscape:window-maximized="1" />
  <metadata
     id="metadata4818">
    <rdf:RDF>
      <cc:Work
         rdf:about="">
        <dc:format>image/svg+xml</dc:format>
        <dc:type
           rdf:resource="http://purl.org/dc/dcmitype/StillImage" />
        <dc:title></dc:title>
      </cc:Work>
    </rdf:RDF>
  </metadata>
  <g
     inkscape:label="レイヤー 1"
     inkscape:groupmode="layer"
     id="layer1"
     transform="translate(0,-197)">
    <style
       id="style5366">
.MsftOfcThm_Text1_Fill {
 fill:#000000; 
}
.MsftOfcThm_Text1_Stroke {
 stroke:#000000; 
}
</style>
    <path
       style="fill:#000000;stroke-width:0.06809376"
       d="m 18.81589,278.40209 c -0.326163,-0.17246 -0.793147,-0.69074 -0.972989,-1.07988 -0.135128,-0.29238 -0.148959,-0.44912 -0.169396,-1.91947 -0.03196,-2.29938 0.127572,-2.87238 0.947188,-3.40213 0.719037,-0.46473 1.725496,-0.50328 2.527642,-0.0968 0.187095,0.0948 0.358784,0.15376 0.381537,0.13101 0.02275,-0.0227 0.05407,-0.87917 0.06959,-1.90315 l 0.02822,-1.86179 0.587558,0.0288 c 0.323157,0.0159 0.717786,0.0447 0.876957,0.0642 l 0.289399,0.0354 v 5.06881 5.06882 h -0.885221 -0.885218 v -0.17024 c 0,-0.20924 -0.03215,-0.20909 -0.374516,0.002 -0.256125,0.15776 -0.329251,0.1676 -1.225688,0.16511 -0.797825,-0.002 -0.992741,-0.0235 -1.195056,-0.13049 z m 2.191766,-1.53928 c 0.271178,-0.14024 0.452343,-0.55817 0.518235,-1.19554 0.118706,-1.1482 -0.117468,-2.01902 -0.613287,-2.26127 -0.537452,-0.26261 -1.163455,0.0649 -1.353154,0.70796 -0.112503,0.38137 -0.109955,1.69765 0.0041,2.10268 0.04733,0.16812 0.185169,0.40237 0.310528,0.52772 0.196797,0.1968 0.269939,0.22542 0.576077,0.22542 0.192862,0 0.443749,-0.0481 0.557526,-0.10697 z m 4.914703,1.46927 c -0.652609,-0.37428 -0.923305,-0.91115 -0.927222,-1.83895 -0.0028,-0.67294 0.08932,-0.93856 0.473719,-1.36527 0.44834,-0.49769 0.788774,-0.59296 2.385673,-0.66762 l 0.940512,-0.044 -0.0042,-0.32245 c -0.0071,-0.54184 -0.423019,-0.87026 -1.098924,-0.8677 -0.401081,0.002 -0.801666,0.13909 -1.171215,0.40224 l -0.187604,0.13358 -0.522435,-0.52552 c -0.28734,-0.28903 -0.522435,-0.57623 -0.522435,-0.63821 0,-0.1478 0.390606,-0.4653 0.873395,-0.70993 0.381766,-0.19345 0.400445,-0.19576 1.57798,-0.19576 h 1.191642 l 0.484638,0.25165 c 0.296623,0.15403 0.593936,0.37582 0.766369,0.57172 0.470906,0.53497 0.492859,0.67927 0.535161,3.5176 l 0.0373,2.50245 h -0.887351 c -0.886454,0 -0.887367,0 -0.929477,-0.16794 l -0.04215,-0.16793 -0.315843,0.16793 c -0.294412,0.15655 -0.38331,0.1679 -1.310084,0.1673 -0.977773,-7.7e-4 -1.000095,-0.004 -1.347456,-0.20322 z m 2.385344,-1.34653 c 0.318679,-0.18611 0.521385,-0.52709 0.521385,-0.87701 v -0.29635 l -0.766054,1.3e-4 c -1.005226,1.4e-4 -1.232665,0.0974 -1.264285,0.54062 -0.01186,0.16632 0.01547,0.37161 0.06074,0.45621 0.19096,0.35681 0.975673,0.45241 1.448211,0.17644 z m 4.266543,-1.88835 v -3.43873 h 0.744598 c 0.873864,0 1.093934,0.0606 1.093934,0.3011 v 0.16828 l 0.370777,-0.19504 c 0.747284,-0.39309 1.671449,-0.41775 2.366561,-0.0631 0.359571,0.18344 0.798011,0.64088 0.996685,1.03987 0.224103,0.45007 0.268166,0.93645 0.31078,3.43036 l 0.03752,2.19603 h -0.951663 -0.951664 l -0.0032,-1.41295 c -0.0046,-2.02608 -0.0806,-3.08139 -0.241725,-3.35582 -0.296332,-0.50472 -0.942815,-0.60223 -1.482128,-0.22355 l -0.281714,0.1978 -0.04198,1.59716 c -0.02309,0.87843 -0.04607,1.9572 -0.05107,2.39726 l -0.0091,0.8001 h -0.953313 -0.953311 z m 7.762689,0 v -3.43873 h 0.885218 0.885218 v 0.27701 0.27701 l 0.201286,-0.14333 c 0.451632,-0.32159 0.828501,-0.43634 1.432965,-0.43634 0.878809,0 1.485569,0.3141 1.945833,1.00731 0.321397,0.48405 0.349298,0.73223 0.396822,3.52955 l 0.0402,2.36626 h -0.91255 -0.91255 l -0.03078,-2.12793 c -0.03306,-2.28559 -0.0608,-2.48967 -0.385783,-2.83756 -0.181011,-0.19377 -0.23036,-0.20964 -0.651979,-0.20964 -0.424328,0 -0.471665,0.0155 -0.678623,0.22248 -0.323736,0.32374 -0.375844,0.68717 -0.424225,2.95893 l -0.04246,1.99372 h -0.874296 -0.874296 z m 8.235652,3.24405 c -0.409484,-0.26334 -0.568846,-0.44985 -0.781774,-0.91495 -0.467911,-1.02204 -0.06421,-2.28249 0.873261,-2.72652 0.303471,-0.14373 1.176678,-0.24656 2.108229,-0.24826 l 0.663915,-0.001 V 274.21 c 0,-0.33599 -0.158888,-0.67992 -0.381486,-0.82577 -0.142805,-0.0936 -0.323278,-0.12378 -0.743504,-0.12446 -0.522365,-7.7e-4 -0.578548,0.0138 -0.957676,0.25061 l -0.402756,0.2515 -0.494079,-0.48852 c -0.271744,-0.26869 -0.5122,-0.54561 -0.534343,-0.61539 -0.08728,-0.27499 0.616382,-0.745 1.402938,-0.9371 0.205982,-0.0503 0.696257,-0.0904 1.089499,-0.0891 1.351669,0.005 2.174068,0.40262 2.706867,1.31024 l 0.173773,0.29602 0.03325,2.64904 0.03325,2.64903 h -0.894774 -0.894774 v -0.17023 c 0,-0.20925 -0.03215,-0.2091 -0.374516,0.002 -0.257733,0.15874 -0.327481,0.16777 -1.297474,0.16811 -1.012056,0 -1.02895,-0.002 -1.327829,-0.19434 z m 2.040033,-1.23342 c 0.549044,-0.15747 0.823598,-0.50587 0.823598,-1.04513 v -0.25051 h -0.822363 c -0.818136,0 -0.823387,0.001 -1.021406,0.19904 -0.345218,0.34522 -0.231042,0.86203 0.235278,1.06499 0.255815,0.11134 0.475981,0.1202 0.784893,0.0316 z m 9.007591,1.27298 c -0.389626,-0.20072 -0.801362,-0.61762 -1.023684,-1.03651 l -0.180699,-0.34047 v -1.73639 -1.73639 l 0.217813,-0.41673 c 0.476002,-0.9107 1.134386,-1.24199 2.829384,-1.42368 l 0.391538,-0.042 0.0057,-1.06758 c 0.0082,-1.52899 0.05451,-1.8244 0.323435,-2.06468 0.352033,-0.31454 0.950326,-0.20673 1.111337,0.20027 0.04774,0.12066 0.08512,1.74247 0.108625,4.71223 l 0.03584,4.52823 -0.314312,0.2894 -0.314308,0.2894 -1.448515,-0.002 c -1.361166,-0.002 -1.466223,-0.011 -1.742193,-0.15321 z m 2.234352,-3.2253 v -2.01856 l -0.552245,0.0461 c -0.982529,0.0819 -1.247831,0.30496 -1.367739,1.14978 -0.109343,0.7704 -0.03378,2.07336 0.139995,2.41399 0.179544,0.35193 0.351721,0.41509 1.150123,0.42191 l 0.629866,0.005 z m 4.315785,3.17919 c -0.648957,-0.37221 -0.968565,-1.11777 -0.888584,-2.07282 0.0699,-0.83464 0.419876,-1.33457 1.145537,-1.63635 0.136832,-0.0569 0.611786,-0.15084 1.055456,-0.20875 1.103167,-0.14398 1.044996,-0.1141 1.044996,-0.53684 0,-0.64693 -0.192435,-0.72713 -1.507726,-0.62841 -0.943454,0.0708 -1.103734,0.0274 -1.257472,-0.34053 -0.133038,-0.31841 -0.07027,-0.59087 0.185736,-0.80629 0.251106,-0.21129 0.544287,-0.29056 1.285679,-0.3476 1.523167,-0.1172 2.502582,0.3413 2.726953,1.27658 0.113065,0.4713 0.119133,4.61739 0.0073,5.00607 -0.139874,0.48626 -0.178532,0.49626 -1.915282,0.49554 l -1.533982,-7.7e-4 -0.348638,-0.19997 z m 2.357405,-1.81545 v -0.7229 l -0.663915,0.0284 c -0.41886,0.0179 -0.721108,0.0648 -0.81887,0.12708 -0.278337,0.1773 -0.352725,0.89078 -0.113566,1.08926 0.159454,0.13234 0.461092,0.18926 1.034578,0.19523 l 0.561773,0.006 z m 3.451431,1.85226 c -0.09758,-0.0904 -0.196213,-0.2393 -0.219178,-0.3308 -0.05663,-0.22562 0.129667,-0.64694 0.322107,-0.72847 0.08621,-0.0365 0.582759,-0.096 1.103436,-0.13211 0.994015,-0.069 1.059045,-0.0941 1.061037,-0.40969 0.001,-0.16638 -0.312952,-0.5 -1.483348,-1.57603 -0.638101,-0.58665 -0.86701,-1.04759 -0.859865,-1.73146 0.0057,-0.54981 0.113126,-0.80274 0.500338,-1.17852 0.411316,-0.39917 0.84485,-0.52418 1.809871,-0.52186 0.891869,0.002 1.154546,0.0806 1.36994,0.40935 0.157542,0.24044 0.0932,0.7655 -0.114413,0.93362 -0.132176,0.10703 -0.268387,0.12282 -0.965243,0.1119 -0.737337,-0.0116 -0.824117,5e-5 -0.951293,0.12723 -0.244337,0.24433 -0.12165,0.43202 0.789752,1.20815 1.192695,1.01568 1.395007,1.34796 1.400378,2.29998 0.0034,0.60735 -0.08666,0.86935 -0.410876,1.19492 -0.448191,0.45007 -0.601078,0.48822 -1.956762,0.48822 -1.193839,0 -1.222041,-0.003 -1.395881,-0.16443 z m 5.667979,-0.0113 -0.16508,-0.17567 -0.02082,-4.71898 -0.02082,-4.71899 0.257648,-0.21237 c 0.285641,-0.23546 0.512473,-0.26548 0.871686,-0.11539 0.314448,0.13138 0.354895,0.32325 0.411929,1.95406 l 0.04673,1.33608 0.861085,0.0361 c 1.343415,0.0562 1.899915,0.30113 2.291054,1.00816 l 0.204281,0.36927 v 2.52246 c 0,3.0477 0.03562,2.90826 -0.73482,2.87688 -0.708619,-0.0289 -0.682607,0.0658 -0.726972,-2.64459 -0.04621,-2.82305 0.02409,-2.67607 -1.26196,-2.63847 l -0.680937,0.0199 -0.03405,2.4954 c -0.0399,2.92465 -0.0033,2.78187 -0.713668,2.78187 -0.363614,0 -0.442414,-0.0237 -0.585268,-0.17568 z M 21.43839,266.42481 c -0.233574,-0.14244 -2.259167,-2.03926 -3.010623,-2.81923 -0.271525,-0.28183 -0.49368,-0.56155 -0.49368,-0.62161 0,-0.0601 0.104563,-0.2242 0.232362,-0.36475 0.127798,-0.14055 2.681864,-2.07876 5.675702,-4.30713 l 5.443338,-4.05158 -0.166786,-0.44261 c -0.246934,-0.6553 -0.740236,-2.64953 -0.867465,-3.50683 -0.413234,-2.78444 -0.202532,-5.72149 0.613067,-8.54576 0.491871,-1.70326 1.53101,-4.008 2.378285,-5.27487 1.494798,-2.23508 3.487837,-4.23094 5.588019,-5.59593 2.227766,-1.44792 5.184025,-2.95927 9.328342,-4.769 3.281906,-1.43314 5.890111,-2.82464 5.890111,-3.14242 0,-0.17653 -1.439862,-1.55261 -1.925585,-1.84029 -1.273732,-0.75439 -2.468122,-0.86326 -3.867604,-0.35251 -0.67119,0.24496 -1.251763,0.5868 -2.305585,1.35754 -0.465733,0.34062 -0.874836,0.61932 -0.909124,0.61932 -0.09337,0 -1.789049,-1.67776 -2.747602,-2.71857 -0.546154,-0.59302 -0.841847,-0.96682 -0.841847,-1.06423 0,-0.40749 2.041142,-1.89464 3.77765,-2.75235 1.826765,-0.90229 2.746959,-1.12206 4.700024,-1.12251 1.865854,-5.2e-4 2.705645,0.17723 4.085626,0.86433 1.273694,0.63417 1.769847,0.9969 3.155794,2.30713 0.548858,0.51887 1.01953,0.94384 1.045936,0.94437 0.0683,10e-4 0.704655,-0.84993 1.755377,-2.34828 1.224996,-1.74687 1.6891,-2.31868 2.598754,-3.20186 1.765549,-1.71417 3.54313,-2.67984 5.845968,-3.17582 0.630263,-0.13574 0.908641,-0.15401 2.349237,-0.15418 1.514926,-1.8e-4 1.696688,0.0131 2.489395,0.18234 3.867514,0.82555 6.856736,3.1459 8.509194,6.60517 0.721351,1.51009 1.054066,2.84784 1.045697,4.20449 -0.0058,0.94393 -0.162422,1.79153 -0.397195,2.14984 -0.05401,0.0824 -0.475137,0.46868 -0.935844,0.85834 -1.440052,1.21797 -2.656148,2.77236 -3.553141,4.54154 -1.170697,2.30902 -1.638561,4.02441 -2.017458,7.39686 -0.07574,0.67413 -0.184714,1.58936 -0.24217,2.03384 -0.05746,0.44448 -0.09269,0.81993 -0.07829,0.83432 0.09634,0.0963 1.616081,-0.57446 3.555347,-1.56928 0.898837,-0.4611 1.705344,-0.86046 1.792237,-0.88747 0.136608,-0.0425 0.273656,0.0646 1.012687,0.79115 1.055391,1.03755 2.316592,2.40938 2.447093,2.66175 0.07229,0.1398 0.07883,0.22334 0.0253,0.32335 -0.156453,0.29234 -2.154743,1.49532 -3.949492,2.3776 -1.697916,0.83469 -2.994842,1.34169 -4.794,1.8741 l -1.219076,0.36076 -0.529134,1.76306 c -0.291026,0.96968 -0.710868,2.25305 -0.932987,2.85193 -0.22212,0.59887 -0.42103,1.15881 -0.44202,1.2443 -0.0534,0.21745 0.131636,0.31405 0.869511,0.45397 3.780364,0.7168 6.296736,2.68502 7.189155,5.62311 0.126311,0.41585 0.139223,0.60502 0.119262,1.74729 l -0.02239,1.28094 -0.29209,0.60797 c -0.379509,0.78993 -0.75498,1.30524 -1.455551,1.99764 -1.025007,1.01305 -2.197648,1.77364 -3.276567,2.12521 l -0.461924,0.15051 -0.389248,-0.32967 c -0.622175,-0.52697 -2.844151,-2.72986 -3.043162,-3.01703 -0.12786,-0.18451 -0.175114,-0.32883 -0.159747,-0.4879 0.01943,-0.20129 0.05891,-0.24038 0.362286,-0.35878 1.686958,-0.65843 2.595048,-1.23848 3.041875,-1.94305 0.238097,-0.37545 0.250643,-0.71459 0.03821,-1.03299 -0.217538,-0.32605 -0.888615,-0.75583 -1.558926,-0.99837 -1.201704,-0.43483 -3.107327,-0.74201 -3.542869,-0.57109 -0.111505,0.0437 -0.549636,0.53275 -1.119716,1.24973 -1.628177,2.04771 -3.317183,3.62544 -5.200056,4.85745 -2.930447,1.91748 -6.634801,3.16299 -10.214064,3.43429 -1.190859,0.0903 -4.1943,0.0897 -5.527202,-10e-4 -4.061665,-0.27652 -7.784953,-1.64005 -10.893861,-3.98949 -0.759257,-0.57378 -1.2359,-0.99537 -2.247014,-1.98748 l -0.725368,-0.71174 -3.076673,2.29526 c -1.692172,1.26239 -3.771168,2.80783 -4.619992,3.43431 -2.686468,1.98278 -2.52075,1.88859 -2.907717,1.65261 z m 29.521172,-6.71949 c 3.064413,-0.33456 5.316896,-1.08412 7.422219,-2.4699 1.67328,-1.1014 3.651953,-3.21902 4.815729,-5.15391 0.893549,-1.4856 1.849055,-3.5831 2.497094,-5.48155 l 0.383526,-1.12354 -0.222181,-0.0596 c -0.705538,-0.18939 -2.082843,-0.68055 -2.644837,-0.94317 -2.597107,-1.21363 -4.685197,-3.78144 -5.777749,-7.10511 -0.42308,-1.28707 -0.605468,-2.24958 -0.482521,-2.5464 0.143624,-0.34674 0.353243,-0.37686 2.622581,-0.37686 2.651135,0 2.543938,-0.0431 2.921579,1.17589 0.365382,1.17947 0.959729,2.17036 1.806883,3.01242 0.650203,0.6463 1.077681,0.90407 2.026272,1.22188 0.839176,0.28115 0.944162,0.27613 1.000488,-0.0478 0.137218,-0.78915 0.400721,-2.69388 0.553437,-4.00051 0.231807,-1.98333 0.454906,-3.30423 0.784289,-4.64354 0.984578,-4.00338 2.632247,-7.09599 5.314566,-9.97524 l 0.698486,-0.74976 -0.257457,-0.52103 c -0.805261,-1.62963 -2.038157,-2.74472 -3.617262,-3.27163 -0.874986,-0.29196 -1.431545,-0.37141 -2.305464,-0.32914 -1.496065,0.0724 -2.708733,0.66089 -3.89971,1.89259 -0.564406,0.5837 -0.721201,0.785 -1.587624,2.03833 -2.933904,4.24404 -5.863976,7.05865 -9.394754,9.02453 -1.011838,0.56338 -2.729746,1.37995 -4.93873,2.34753 -4.597489,2.0138 -7.076706,3.31028 -9.157927,4.78904 -3.055292,2.17088 -5.038355,5.85168 -5.390247,10.00496 -0.140777,1.66157 0.08429,3.50476 0.626971,5.13461 0.294412,0.8842 1.001409,2.27953 1.496994,2.95445 0.528732,0.72007 1.81708,2.00164 2.605134,2.59142 1.76428,1.3204 4.206907,2.25739 6.638113,2.54637 2.092005,0.24866 3.612357,0.26667 5.462102,0.0647 z"
       id="path5436"
       inkscape:connector-curvature="0" />
    <path
       style="fill:none;stroke:#f60000;stroke-width:0.1;stroke-miterlimit:4;stroke-dasharray:none;stroke-opacity:1"
       d="m 69.925038,206.07162 c -2.363793,0.001 -4.296585,0.47807 -7.883758,1.94665 -4.699529,1.92397 -5.665004,2.27825 -7.225398,2.64894 -1.757664,0.41755 -3.336483,0.58523 -8.04292,0.85472 -3.194005,0.1829 -5.08956,0.54042 -6.468856,1.2206 -0.898247,0.44297 -1.494999,0.88226 -2.315104,1.70429 -0.795134,0.797 -1.375458,1.62552 -1.907892,2.72335 -0.77215,1.59208 -1.209919,3.25121 -1.469163,5.56658 -0.159678,1.42614 -0.293825,1.89632 -0.849561,2.98277 -0.552468,1.08007 -1.374145,2.28849 -3.325378,4.89065 -2.048746,2.73224 -2.67861,3.61078 -3.429246,4.78008 -1.792822,2.79278 -2.682192,4.95168 -2.942457,7.14478 -0.253209,2.13363 -0.818697,3.72281 -1.936833,5.44359 -0.649348,0.99933 -1.377259,1.86233 -3.10627,3.68143 -2.185611,2.29948 -2.851737,3.14943 -3.461287,4.41731 l -0.315227,0.65525 -0.0217,7.62693 c -0.01185,4.19458 -3.97e-4,9.47254 0.02532,11.729 l 0.04703,4.10259 h 2.962093 v 9.81128 h 64.699925 v -9.81128 h 2.565577 c 0.06365,-6.00672 0.03608,-11.19213 0.03726,-17.26288 l -0.719748,-1.19078 c -0.17549,-0.61795 -0.580096,-1.99652 -0.899171,-3.06389 -0.690927,-2.3113 -1.317966,-4.74927 -1.52342,-5.92419 -0.188569,-1.07837 -0.260887,-3.16192 -0.136425,-3.93464 0.655683,-3.88475 2.980693,-5.70908 3.337264,-9.58805 0.0021,-1.25701 -0.284837,-1.995 -1.533239,-3.94498 -0.885114,-1.38253 -1.143003,-1.85323 -1.398882,-2.55436 -1.472509,-4.0753 1.45028,-3.46844 2.455664,-7.51117 0.512567,-2.03339 0.161214,-5.71947 -0.787032,-8.25996 -1.785159,-4.78266 -5.823492,-8.64227 -10.751798,-10.27534 -1.502357,-0.49784 -2.179611,-0.60979 -3.679362,-0.60927 z"
       id="path5438"
       inkscape:connector-curvature="0"
       sodipodi:nodetypes="cccscccscccsccccccccccccccscccsccccc" />
  </g>
</svg>
